# Wavefront OBJ file automatically generated by Tiled2Unity

# Vertices (Count = 162)
v -832 -144 0
v -896 -144 0
v -896 -112 0
v -832 -112 0
v -864 -160 0
v -928 -160 0
v -928 -128 0
v -864 -128 0
v -896 -176 0
v -960 -176 0
v -960 -144 0
v -928 -192 0
v -992 -192 0
v -992 -160 0
v -960 -208 0
v -1024 -208 0
v -1024 -176 0
v -992 -224 0
v -1056 -224 0
v -1056 -192 0
v -1024 -240 0
v -1088 -240 0
v -1088 -208 0
v -1056 -256 0
v -1120 -256 0
v -1120 -224 0
v -1088 -272 0
v -1152 -272 0
v -1152 -240 0
v -1120 -288 0
v -1184 -288 0
v -1184 -256 0
v -1152 -304 0
v -1216 -304 0
v -1216 -272 0
v -1184 -320 0
v -1248 -320 0
v -1248 -288 0
v -1216 -336 0
v -1280 -336 0
v -1280 -304 0
v -832 -176 0
v -864 -192 0
v -896 -208 0
v -928 -224 0
v -960 -240 0
v -992 -256 0
v -1024 -272 0
v -1056 -288 0
v -1088 -304 0
v -1120 -320 0
v -1152 -336 0
v -1184 -352 0
v -1248 -352 0
v -800 -192 0
v -800 -160 0
v -832 -208 0
v -864 -224 0
v -896 -240 0
v -928 -256 0
v -960 -272 0
v -992 -288 0
v -1024 -304 0
v -1056 -320 0
v -1088 -336 0
v -1120 -352 0
v -1152 -368 0
v -1216 -368 0
v -800 -224 0
v -832 -240 0
v -864 -256 0
v -896 -272 0
v -928 -288 0
v -960 -304 0
v -992 -320 0
v -1024 -336 0
v -1056 -352 0
v -1088 -368 0
v -1120 -384 0
v -1184 -384 0
v -768 -240 0
v -768 -208 0
v -800 -256 0
v -832 -272 0
v -864 -288 0
v -896 -304 0
v -928 -320 0
v -960 -336 0
v -992 -352 0
v -1024 -368 0
v -1056 -384 0
v -1088 -400 0
v -1152 -400 0
v -768 -272 0
v -800 -288 0
v -832 -304 0
v -864 -320 0
v -896 -336 0
v -928 -352 0
v -960 -368 0
v -992 -384 0
v -1024 -400 0
v -1056 -416 0
v -1120 -416 0
v -736 -288 0
v -736 -256 0
v -768 -304 0
v -800 -320 0
v -832 -336 0
v -864 -352 0
v -896 -368 0
v -928 -384 0
v -960 -400 0
v -992 -416 0
v -1024 -432 0
v -1088 -432 0
v -736 -320 0
v -768 -336 0
v -800 -352 0
v -832 -368 0
v -864 -384 0
v -896 -400 0
v -928 -416 0
v -960 -432 0
v -992 -448 0
v -1056 -448 0
v -736 -352 0
v -768 -368 0
v -800 -384 0
v -832 -400 0
v -864 -416 0
v -896 -432 0
v -928 -448 0
v -960 -464 0
v -1024 -464 0
v -736 -384 0
v -768 -400 0
v -800 -416 0
v -832 -432 0
v -864 -448 0
v -896 -464 0
v -928 -480 0
v -992 -480 0
v -736 -416 0
v -768 -432 0
v -800 -448 0
v -832 -464 0
v -864 -480 0
v -896 -496 0
v -960 -496 0
v -736 -448 0
v -768 -464 0
v -800 -480 0
v -832 -496 0
v -864 -512 0
v -928 -512 0
v -736 -480 0
v -768 -496 0
v -800 -512 0
v -736 -512 0
v -768 -528 0
v -832 -528 0

# Texture cooridinates (Count = 4)
vt 0.0001220703 0.0001220703
vt 0.9998779 0.0001220703
vt 0.9998779 0.9998779
vt 0.0001220703 0.9998779

# Normal
vn 0 0 -1

# Groups (Count = 2)

g mesh_0001
f 1/1/1 2/2/1 3/3/1 4/4/1
f 5/1/1 6/2/1 7/3/1 8/4/1
f 9/1/1 10/2/1 11/3/1 2/4/1
f 12/1/1 13/2/1 14/3/1 6/4/1
f 15/1/1 16/2/1 17/3/1 10/4/1
f 18/1/1 19/2/1 20/3/1 13/4/1
f 21/1/1 22/2/1 23/3/1 16/4/1
f 24/1/1 25/2/1 26/3/1 19/4/1
f 27/1/1 28/2/1 29/3/1 22/4/1
f 30/1/1 31/2/1 32/3/1 25/4/1
f 33/1/1 34/2/1 35/3/1 28/4/1
f 36/1/1 37/2/1 38/3/1 31/4/1
f 39/1/1 40/2/1 41/3/1 34/4/1
f 42/1/1 9/2/1 2/3/1 1/4/1
f 43/1/1 12/2/1 6/3/1 5/4/1
f 44/1/1 15/2/1 10/3/1 9/4/1
f 45/1/1 18/2/1 13/3/1 12/4/1
f 46/1/1 21/2/1 16/3/1 15/4/1
f 47/1/1 24/2/1 19/3/1 18/4/1
f 48/1/1 27/2/1 22/3/1 21/4/1
f 49/1/1 30/2/1 25/3/1 24/4/1
f 50/1/1 33/2/1 28/3/1 27/4/1
f 51/1/1 36/2/1 31/3/1 30/4/1
f 52/1/1 39/2/1 34/3/1 33/4/1
f 53/1/1 54/2/1 37/3/1 36/4/1
f 55/1/1 43/2/1 5/3/1 56/4/1
f 57/1/1 44/2/1 9/3/1 42/4/1
f 58/1/1 45/2/1 12/3/1 43/4/1
f 59/1/1 46/2/1 15/3/1 44/4/1
f 60/1/1 47/2/1 18/3/1 45/4/1
f 61/1/1 48/2/1 21/3/1 46/4/1
f 62/1/1 49/2/1 24/3/1 47/4/1
f 63/1/1 50/2/1 27/3/1 48/4/1
f 64/1/1 51/2/1 30/3/1 49/4/1
f 65/1/1 52/2/1 33/3/1 50/4/1
f 66/1/1 53/2/1 36/3/1 51/4/1
f 67/1/1 68/2/1 39/3/1 52/4/1
f 69/1/1 58/2/1 43/3/1 55/4/1
f 70/1/1 59/2/1 44/3/1 57/4/1
f 71/1/1 60/2/1 45/3/1 58/4/1
f 72/1/1 61/2/1 46/3/1 59/4/1
f 73/1/1 62/2/1 47/3/1 60/4/1
f 74/1/1 63/2/1 48/3/1 61/4/1
f 75/1/1 64/2/1 49/3/1 62/4/1
f 76/1/1 65/2/1 50/3/1 63/4/1
f 77/1/1 66/2/1 51/3/1 64/4/1
f 78/1/1 67/2/1 52/3/1 65/4/1
f 79/1/1 80/2/1 53/3/1 66/4/1
f 81/1/1 70/2/1 57/3/1 82/4/1
f 83/1/1 71/2/1 58/3/1 69/4/1
f 84/1/1 72/2/1 59/3/1 70/4/1
f 85/1/1 73/2/1 60/3/1 71/4/1
f 86/1/1 74/2/1 61/3/1 72/4/1
f 87/1/1 75/2/1 62/3/1 73/4/1
f 88/1/1 76/2/1 63/3/1 74/4/1
f 89/1/1 77/2/1 64/3/1 75/4/1
f 90/1/1 78/2/1 65/3/1 76/4/1
f 91/1/1 79/2/1 66/3/1 77/4/1
f 92/1/1 93/2/1 67/3/1 78/4/1
f 94/1/1 84/2/1 70/3/1 81/4/1
f 95/1/1 85/2/1 71/3/1 83/4/1
f 96/1/1 86/2/1 72/3/1 84/4/1
f 97/1/1 87/2/1 73/3/1 85/4/1
f 98/1/1 88/2/1 74/3/1 86/4/1
f 99/1/1 89/2/1 75/3/1 87/4/1
f 100/1/1 90/2/1 76/3/1 88/4/1
f 101/1/1 91/2/1 77/3/1 89/4/1
f 102/1/1 92/2/1 78/3/1 90/4/1
f 103/1/1 104/2/1 79/3/1 91/4/1
f 105/1/1 95/2/1 83/3/1 106/4/1
f 107/1/1 96/2/1 84/3/1 94/4/1
f 108/1/1 97/2/1 85/3/1 95/4/1
f 109/1/1 98/2/1 86/3/1 96/4/1
f 110/1/1 99/2/1 87/3/1 97/4/1
f 111/1/1 100/2/1 88/3/1 98/4/1
f 112/1/1 101/2/1 89/3/1 99/4/1
f 113/1/1 102/2/1 90/3/1 100/4/1
f 114/1/1 103/2/1 91/3/1 101/4/1
f 115/1/1 116/2/1 92/3/1 102/4/1
f 117/1/1 108/2/1 95/3/1 105/4/1
f 118/1/1 109/2/1 96/3/1 107/4/1
f 119/1/1 110/2/1 97/3/1 108/4/1
f 120/1/1 111/2/1 98/3/1 109/4/1
f 121/1/1 112/2/1 99/3/1 110/4/1
f 122/1/1 113/2/1 100/3/1 111/4/1
f 123/1/1 114/2/1 101/3/1 112/4/1
f 124/1/1 115/2/1 102/3/1 113/4/1
f 125/1/1 126/2/1 103/3/1 114/4/1
f 127/1/1 119/2/1 108/3/1 117/4/1
f 128/1/1 120/2/1 109/3/1 118/4/1
f 129/1/1 121/2/1 110/3/1 119/4/1
f 130/1/1 122/2/1 111/3/1 120/4/1
f 131/1/1 123/2/1 112/3/1 121/4/1
f 132/1/1 124/2/1 113/3/1 122/4/1
f 133/1/1 125/2/1 114/3/1 123/4/1
f 134/1/1 135/2/1 115/3/1 124/4/1
f 136/1/1 129/2/1 119/3/1 127/4/1
f 137/1/1 130/2/1 120/3/1 128/4/1
f 138/1/1 131/2/1 121/3/1 129/4/1
f 139/1/1 132/2/1 122/3/1 130/4/1
f 140/1/1 133/2/1 123/3/1 131/4/1
f 141/1/1 134/2/1 124/3/1 132/4/1
f 142/1/1 143/2/1 125/3/1 133/4/1
f 144/1/1 138/2/1 129/3/1 136/4/1
f 145/1/1 139/2/1 130/3/1 137/4/1
f 146/1/1 140/2/1 131/3/1 138/4/1
f 147/1/1 141/2/1 132/3/1 139/4/1
f 148/1/1 142/2/1 133/3/1 140/4/1
f 149/1/1 150/2/1 134/3/1 141/4/1
f 151/1/1 146/2/1 138/3/1 144/4/1
f 152/1/1 147/2/1 139/3/1 145/4/1
f 153/1/1 148/2/1 140/3/1 146/4/1
f 154/1/1 149/2/1 141/3/1 147/4/1
f 155/1/1 156/2/1 142/3/1 148/4/1
f 157/1/1 153/2/1 146/3/1 151/4/1
f 158/1/1 154/2/1 147/3/1 152/4/1
f 159/1/1 155/2/1 148/3/1 153/4/1
f 160/1/1 159/2/1 153/3/1 157/4/1
f 161/1/1 162/2/1 154/3/1 158/4/1

g mesh_0002
f 21/1/1 22/2/1 23/3/1 16/4/1
f 44/1/1 15/2/1 10/3/1 9/4/1
f 77/1/1 66/2/1 51/3/1 64/4/1

g mesh_0003
f 48/1/1 27/2/1 22/3/1 21/4/1
f 59/1/1 46/2/1 15/3/1 44/4/1
f 91/1/1 79/2/1 66/3/1 77/4/1

g mesh_0004
f 107/1/1 96/2/1 84/3/1 94/4/1
f 111/1/1 100/2/1 88/3/1 98/4/1

g mesh_0005
f 118/1/1 109/2/1 96/3/1 107/4/1
f 122/1/1 113/2/1 100/3/1 111/4/1

