# Wavefront OBJ file automatically generated by Tiled2Unity

# Vertices (Count = 480)
v -608 -32 0
v -672 -32 0
v -672 0 0
v -608 0 0
v -640 -48 0
v -704 -48 0
v -704 -16 0
v -640 -16 0
v -672 -64 0
v -736 -64 0
v -736 -32 0
v -704 -80 0
v -768 -80 0
v -768 -48 0
v -736 -96 0
v -800 -96 0
v -800 -64 0
v -768 -112 0
v -832 -112 0
v -832 -80 0
v -800 -128 0
v -864 -128 0
v -864 -96 0
v -832 -144 0
v -896 -144 0
v -896 -112 0
v -864 -160 0
v -928 -160 0
v -928 -128 0
v -896 -176 0
v -960 -176 0
v -960 -144 0
v -928 -192 0
v -992 -192 0
v -992 -160 0
v -960 -208 0
v -1024 -208 0
v -1024 -176 0
v -992 -224 0
v -1056 -224 0
v -1056 -192 0
v -1024 -240 0
v -1088 -240 0
v -1088 -208 0
v -1056 -256 0
v -1120 -256 0
v -1120 -224 0
v -1088 -272 0
v -1152 -272 0
v -1152 -240 0
v -1120 -288 0
v -1184 -288 0
v -1184 -256 0
v -1152 -304 0
v -1216 -304 0
v -1216 -272 0
v -1184 -320 0
v -1248 -320 0
v -1248 -288 0
v -1216 -336 0
v -1280 -336 0
v -1280 -304 0
v -576 -48 0
v -576 -16 0
v -608 -64 0
v -640 -80 0
v -672 -96 0
v -704 -112 0
v -736 -128 0
v -768 -144 0
v -800 -160 0
v -832 -176 0
v -864 -192 0
v -896 -208 0
v -928 -224 0
v -960 -240 0
v -992 -256 0
v -1024 -272 0
v -1056 -288 0
v -1088 -304 0
v -1120 -320 0
v -1152 -336 0
v -1184 -352 0
v -1248 -352 0
v -544 -64 0
v -544 -32 0
v -576 -80 0
v -608 -96 0
v -640 -112 0
v -672 -128 0
v -704 -144 0
v -736 -160 0
v -768 -176 0
v -800 -192 0
v -832 -208 0
v -864 -224 0
v -896 -240 0
v -928 -256 0
v -960 -272 0
v -992 -288 0
v -1024 -304 0
v -1056 -320 0
v -1088 -336 0
v -1120 -352 0
v -1152 -368 0
v -1216 -368 0
v -512 -80 0
v -512 -48 0
v -544 -96 0
v -576 -112 0
v -608 -128 0
v -640 -144 0
v -672 -160 0
v -704 -176 0
v -736 -192 0
v -768 -208 0
v -800 -224 0
v -832 -240 0
v -864 -256 0
v -896 -272 0
v -928 -288 0
v -960 -304 0
v -992 -320 0
v -1024 -336 0
v -1056 -352 0
v -1088 -368 0
v -1120 -384 0
v -1184 -384 0
v -480 -96 0
v -480 -64 0
v -512 -112 0
v -544 -128 0
v -576 -144 0
v -608 -160 0
v -640 -176 0
v -672 -192 0
v -704 -208 0
v -736 -224 0
v -768 -240 0
v -800 -256 0
v -832 -272 0
v -864 -288 0
v -896 -304 0
v -928 -320 0
v -960 -336 0
v -992 -352 0
v -1024 -368 0
v -1056 -384 0
v -1088 -400 0
v -1152 -400 0
v -448 -112 0
v -448 -80 0
v -480 -128 0
v -512 -144 0
v -544 -160 0
v -576 -176 0
v -608 -192 0
v -640 -208 0
v -672 -224 0
v -704 -240 0
v -736 -256 0
v -768 -272 0
v -800 -288 0
v -832 -304 0
v -864 -320 0
v -896 -336 0
v -928 -352 0
v -960 -368 0
v -992 -384 0
v -1024 -400 0
v -1056 -416 0
v -1120 -416 0
v -416 -128 0
v -416 -96 0
v -448 -144 0
v -480 -160 0
v -512 -176 0
v -544 -192 0
v -576 -208 0
v -608 -224 0
v -640 -240 0
v -672 -256 0
v -704 -272 0
v -736 -288 0
v -768 -304 0
v -800 -320 0
v -832 -336 0
v -864 -352 0
v -896 -368 0
v -928 -384 0
v -960 -400 0
v -992 -416 0
v -1024 -432 0
v -1088 -432 0
v -384 -144 0
v -384 -112 0
v -416 -160 0
v -448 -176 0
v -480 -192 0
v -512 -208 0
v -544 -224 0
v -576 -240 0
v -608 -256 0
v -640 -272 0
v -672 -288 0
v -704 -304 0
v -736 -320 0
v -768 -336 0
v -800 -352 0
v -832 -368 0
v -864 -384 0
v -896 -400 0
v -928 -416 0
v -960 -432 0
v -992 -448 0
v -1056 -448 0
v -352 -160 0
v -352 -128 0
v -384 -176 0
v -416 -192 0
v -448 -208 0
v -480 -224 0
v -512 -240 0
v -544 -256 0
v -576 -272 0
v -608 -288 0
v -640 -304 0
v -672 -320 0
v -704 -336 0
v -736 -352 0
v -768 -368 0
v -800 -384 0
v -832 -400 0
v -864 -416 0
v -896 -432 0
v -928 -448 0
v -960 -464 0
v -1024 -464 0
v -320 -176 0
v -320 -144 0
v -352 -192 0
v -384 -208 0
v -416 -224 0
v -448 -240 0
v -480 -256 0
v -512 -272 0
v -544 -288 0
v -576 -304 0
v -608 -320 0
v -640 -336 0
v -672 -352 0
v -704 -368 0
v -736 -384 0
v -768 -400 0
v -800 -416 0
v -832 -432 0
v -864 -448 0
v -896 -464 0
v -928 -480 0
v -992 -480 0
v -288 -192 0
v -288 -160 0
v -320 -208 0
v -352 -224 0
v -384 -240 0
v -416 -256 0
v -448 -272 0
v -480 -288 0
v -512 -304 0
v -544 -320 0
v -576 -336 0
v -608 -352 0
v -640 -368 0
v -672 -384 0
v -704 -400 0
v -736 -416 0
v -768 -432 0
v -800 -448 0
v -832 -464 0
v -864 -480 0
v -896 -496 0
v -960 -496 0
v -256 -208 0
v -256 -176 0
v -288 -224 0
v -320 -240 0
v -352 -256 0
v -384 -272 0
v -416 -288 0
v -448 -304 0
v -480 -320 0
v -512 -336 0
v -544 -352 0
v -576 -368 0
v -608 -384 0
v -640 -400 0
v -672 -416 0
v -704 -432 0
v -736 -448 0
v -768 -464 0
v -800 -480 0
v -832 -496 0
v -864 -512 0
v -928 -512 0
v -224 -224 0
v -224 -192 0
v -256 -240 0
v -288 -256 0
v -320 -272 0
v -352 -288 0
v -384 -304 0
v -416 -320 0
v -448 -336 0
v -480 -352 0
v -512 -368 0
v -544 -384 0
v -576 -400 0
v -608 -416 0
v -640 -432 0
v -672 -448 0
v -704 -464 0
v -736 -480 0
v -768 -496 0
v -800 -512 0
v -832 -528 0
v -896 -528 0
v -192 -240 0
v -192 -208 0
v -224 -256 0
v -256 -272 0
v -288 -288 0
v -320 -304 0
v -352 -320 0
v -384 -336 0
v -416 -352 0
v -448 -368 0
v -480 -384 0
v -512 -400 0
v -544 -416 0
v -576 -432 0
v -608 -448 0
v -640 -464 0
v -672 -480 0
v -704 -496 0
v -736 -512 0
v -768 -528 0
v -800 -544 0
v -864 -544 0
v -160 -256 0
v -160 -224 0
v -192 -272 0
v -224 -288 0
v -256 -304 0
v -288 -320 0
v -320 -336 0
v -352 -352 0
v -384 -368 0
v -416 -384 0
v -448 -400 0
v -480 -416 0
v -512 -432 0
v -544 -448 0
v -576 -464 0
v -608 -480 0
v -640 -496 0
v -672 -512 0
v -704 -528 0
v -736 -544 0
v -768 -560 0
v -832 -560 0
v -128 -272 0
v -128 -240 0
v -160 -288 0
v -192 -304 0
v -224 -320 0
v -256 -336 0
v -288 -352 0
v -320 -368 0
v -352 -384 0
v -384 -400 0
v -416 -416 0
v -448 -432 0
v -480 -448 0
v -512 -464 0
v -544 -480 0
v -576 -496 0
v -608 -512 0
v -640 -528 0
v -672 -544 0
v -704 -560 0
v -736 -576 0
v -800 -576 0
v -96 -288 0
v -96 -256 0
v -128 -304 0
v -160 -320 0
v -192 -336 0
v -224 -352 0
v -256 -368 0
v -288 -384 0
v -320 -400 0
v -352 -416 0
v -384 -432 0
v -416 -448 0
v -448 -464 0
v -480 -480 0
v -512 -496 0
v -544 -512 0
v -576 -528 0
v -608 -544 0
v -640 -560 0
v -672 -576 0
v -704 -592 0
v -768 -592 0
v -64 -304 0
v -64 -272 0
v -96 -320 0
v -128 -336 0
v -160 -352 0
v -192 -368 0
v -224 -384 0
v -256 -400 0
v -288 -416 0
v -320 -432 0
v -352 -448 0
v -384 -464 0
v -416 -480 0
v -448 -496 0
v -480 -512 0
v -512 -528 0
v -544 -544 0
v -576 -560 0
v -608 -576 0
v -640 -592 0
v -672 -608 0
v -736 -608 0
v -32 -320 0
v -32 -288 0
v -64 -336 0
v -96 -352 0
v -128 -368 0
v -160 -384 0
v -192 -400 0
v -224 -416 0
v -256 -432 0
v -288 -448 0
v -320 -464 0
v -352 -480 0
v -384 -496 0
v -416 -512 0
v -448 -528 0
v -480 -544 0
v -512 -560 0
v -544 -576 0
v -576 -592 0
v -608 -608 0
v -640 -624 0
v -704 -624 0
v 0 -336 0
v 0 -304 0
v -32 -352 0
v -64 -368 0
v -96 -384 0
v -128 -400 0
v -160 -416 0
v -192 -432 0
v -224 -448 0
v -256 -464 0
v -288 -480 0
v -320 -496 0
v -352 -512 0
v -384 -528 0
v -416 -544 0
v -448 -560 0
v -480 -576 0
v -512 -592 0
v -544 -608 0
v -576 -624 0
v -608 -640 0
v -672 -640 0

# Texture cooridinates (Count = 4)
vt 0.0001220703 0.0001220703
vt 0.9998779 0.0001220703
vt 0.9998779 0.9998779
vt 0.0001220703 0.9998779

# Normal
vn 0 0 -1

# Groups (Count = 1)

g mesh_0001
f 1/1/1 2/2/1 3/3/1 4/4/1
f 5/1/1 6/2/1 7/3/1 8/4/1
f 9/1/1 10/2/1 11/3/1 2/4/1
f 12/1/1 13/2/1 14/3/1 6/4/1
f 15/1/1 16/2/1 17/3/1 10/4/1
f 18/1/1 19/2/1 20/3/1 13/4/1
f 21/1/1 22/2/1 23/3/1 16/4/1
f 24/1/1 25/2/1 26/3/1 19/4/1
f 27/1/1 28/2/1 29/3/1 22/4/1
f 30/1/1 31/2/1 32/3/1 25/4/1
f 33/1/1 34/2/1 35/3/1 28/4/1
f 36/1/1 37/2/1 38/3/1 31/4/1
f 39/1/1 40/2/1 41/3/1 34/4/1
f 42/1/1 43/2/1 44/3/1 37/4/1
f 45/1/1 46/2/1 47/3/1 40/4/1
f 48/1/1 49/2/1 50/3/1 43/4/1
f 51/1/1 52/2/1 53/3/1 46/4/1
f 54/1/1 55/2/1 56/3/1 49/4/1
f 57/1/1 58/2/1 59/3/1 52/4/1
f 60/1/1 61/2/1 62/3/1 55/4/1
f 63/1/1 5/2/1 8/3/1 64/4/1
f 65/1/1 9/2/1 2/3/1 1/4/1
f 66/1/1 12/2/1 6/3/1 5/4/1
f 67/1/1 15/2/1 10/3/1 9/4/1
f 68/1/1 18/2/1 13/3/1 12/4/1
f 69/1/1 21/2/1 16/3/1 15/4/1
f 70/1/1 24/2/1 19/3/1 18/4/1
f 71/1/1 27/2/1 22/3/1 21/4/1
f 72/1/1 30/2/1 25/3/1 24/4/1
f 73/1/1 33/2/1 28/3/1 27/4/1
f 74/1/1 36/2/1 31/3/1 30/4/1
f 75/1/1 39/2/1 34/3/1 33/4/1
f 76/1/1 42/2/1 37/3/1 36/4/1
f 77/1/1 45/2/1 40/3/1 39/4/1
f 78/1/1 48/2/1 43/3/1 42/4/1
f 79/1/1 51/2/1 46/3/1 45/4/1
f 80/1/1 54/2/1 49/3/1 48/4/1
f 81/1/1 57/2/1 52/3/1 51/4/1
f 82/1/1 60/2/1 55/3/1 54/4/1
f 83/1/1 84/2/1 58/3/1 57/4/1
f 85/1/1 65/2/1 1/3/1 86/4/1
f 87/1/1 66/2/1 5/3/1 63/4/1
f 88/1/1 67/2/1 9/3/1 65/4/1
f 89/1/1 68/2/1 12/3/1 66/4/1
f 90/1/1 69/2/1 15/3/1 67/4/1
f 91/1/1 70/2/1 18/3/1 68/4/1
f 92/1/1 71/2/1 21/3/1 69/4/1
f 93/1/1 72/2/1 24/3/1 70/4/1
f 94/1/1 73/2/1 27/3/1 71/4/1
f 95/1/1 74/2/1 30/3/1 72/4/1
f 96/1/1 75/2/1 33/3/1 73/4/1
f 97/1/1 76/2/1 36/3/1 74/4/1
f 98/1/1 77/2/1 39/3/1 75/4/1
f 99/1/1 78/2/1 42/3/1 76/4/1
f 100/1/1 79/2/1 45/3/1 77/4/1
f 101/1/1 80/2/1 48/3/1 78/4/1
f 102/1/1 81/2/1 51/3/1 79/4/1
f 103/1/1 82/2/1 54/3/1 80/4/1
f 104/1/1 83/2/1 57/3/1 81/4/1
f 105/1/1 106/2/1 60/3/1 82/4/1
f 107/1/1 87/2/1 63/3/1 108/4/1
f 109/1/1 88/2/1 65/3/1 85/4/1
f 110/1/1 89/2/1 66/3/1 87/4/1
f 111/1/1 90/2/1 67/3/1 88/4/1
f 112/1/1 91/2/1 68/3/1 89/4/1
f 113/1/1 92/2/1 69/3/1 90/4/1
f 114/1/1 93/2/1 70/3/1 91/4/1
f 115/1/1 94/2/1 71/3/1 92/4/1
f 116/1/1 95/2/1 72/3/1 93/4/1
f 117/1/1 96/2/1 73/3/1 94/4/1
f 118/1/1 97/2/1 74/3/1 95/4/1
f 119/1/1 98/2/1 75/3/1 96/4/1
f 120/1/1 99/2/1 76/3/1 97/4/1
f 121/1/1 100/2/1 77/3/1 98/4/1
f 122/1/1 101/2/1 78/3/1 99/4/1
f 123/1/1 102/2/1 79/3/1 100/4/1
f 124/1/1 103/2/1 80/3/1 101/4/1
f 125/1/1 104/2/1 81/3/1 102/4/1
f 126/1/1 105/2/1 82/3/1 103/4/1
f 127/1/1 128/2/1 83/3/1 104/4/1
f 129/1/1 109/2/1 85/3/1 130/4/1
f 131/1/1 110/2/1 87/3/1 107/4/1
f 132/1/1 111/2/1 88/3/1 109/4/1
f 133/1/1 112/2/1 89/3/1 110/4/1
f 134/1/1 113/2/1 90/3/1 111/4/1
f 135/1/1 114/2/1 91/3/1 112/4/1
f 136/1/1 115/2/1 92/3/1 113/4/1
f 137/1/1 116/2/1 93/3/1 114/4/1
f 138/1/1 117/2/1 94/3/1 115/4/1
f 139/1/1 118/2/1 95/3/1 116/4/1
f 140/1/1 119/2/1 96/3/1 117/4/1
f 141/1/1 120/2/1 97/3/1 118/4/1
f 142/1/1 121/2/1 98/3/1 119/4/1
f 143/1/1 122/2/1 99/3/1 120/4/1
f 144/1/1 123/2/1 100/3/1 121/4/1
f 145/1/1 124/2/1 101/3/1 122/4/1
f 146/1/1 125/2/1 102/3/1 123/4/1
f 147/1/1 126/2/1 103/3/1 124/4/1
f 148/1/1 127/2/1 104/3/1 125/4/1
f 149/1/1 150/2/1 105/3/1 126/4/1
f 151/1/1 131/2/1 107/3/1 152/4/1
f 153/1/1 132/2/1 109/3/1 129/4/1
f 154/1/1 133/2/1 110/3/1 131/4/1
f 155/1/1 134/2/1 111/3/1 132/4/1
f 156/1/1 135/2/1 112/3/1 133/4/1
f 157/1/1 136/2/1 113/3/1 134/4/1
f 158/1/1 137/2/1 114/3/1 135/4/1
f 159/1/1 138/2/1 115/3/1 136/4/1
f 160/1/1 139/2/1 116/3/1 137/4/1
f 161/1/1 140/2/1 117/3/1 138/4/1
f 162/1/1 141/2/1 118/3/1 139/4/1
f 163/1/1 142/2/1 119/3/1 140/4/1
f 164/1/1 143/2/1 120/3/1 141/4/1
f 165/1/1 144/2/1 121/3/1 142/4/1
f 166/1/1 145/2/1 122/3/1 143/4/1
f 167/1/1 146/2/1 123/3/1 144/4/1
f 168/1/1 147/2/1 124/3/1 145/4/1
f 169/1/1 148/2/1 125/3/1 146/4/1
f 170/1/1 149/2/1 126/3/1 147/4/1
f 171/1/1 172/2/1 127/3/1 148/4/1
f 173/1/1 153/2/1 129/3/1 174/4/1
f 175/1/1 154/2/1 131/3/1 151/4/1
f 176/1/1 155/2/1 132/3/1 153/4/1
f 177/1/1 156/2/1 133/3/1 154/4/1
f 178/1/1 157/2/1 134/3/1 155/4/1
f 179/1/1 158/2/1 135/3/1 156/4/1
f 180/1/1 159/2/1 136/3/1 157/4/1
f 181/1/1 160/2/1 137/3/1 158/4/1
f 182/1/1 161/2/1 138/3/1 159/4/1
f 183/1/1 162/2/1 139/3/1 160/4/1
f 184/1/1 163/2/1 140/3/1 161/4/1
f 185/1/1 164/2/1 141/3/1 162/4/1
f 186/1/1 165/2/1 142/3/1 163/4/1
f 187/1/1 166/2/1 143/3/1 164/4/1
f 188/1/1 167/2/1 144/3/1 165/4/1
f 189/1/1 168/2/1 145/3/1 166/4/1
f 190/1/1 169/2/1 146/3/1 167/4/1
f 191/1/1 170/2/1 147/3/1 168/4/1
f 192/1/1 171/2/1 148/3/1 169/4/1
f 193/1/1 194/2/1 149/3/1 170/4/1
f 195/1/1 175/2/1 151/3/1 196/4/1
f 197/1/1 176/2/1 153/3/1 173/4/1
f 198/1/1 177/2/1 154/3/1 175/4/1
f 199/1/1 178/2/1 155/3/1 176/4/1
f 200/1/1 179/2/1 156/3/1 177/4/1
f 201/1/1 180/2/1 157/3/1 178/4/1
f 202/1/1 181/2/1 158/3/1 179/4/1
f 203/1/1 182/2/1 159/3/1 180/4/1
f 204/1/1 183/2/1 160/3/1 181/4/1
f 205/1/1 184/2/1 161/3/1 182/4/1
f 206/1/1 185/2/1 162/3/1 183/4/1
f 207/1/1 186/2/1 163/3/1 184/4/1
f 208/1/1 187/2/1 164/3/1 185/4/1
f 209/1/1 188/2/1 165/3/1 186/4/1
f 210/1/1 189/2/1 166/3/1 187/4/1
f 211/1/1 190/2/1 167/3/1 188/4/1
f 212/1/1 191/2/1 168/3/1 189/4/1
f 213/1/1 192/2/1 169/3/1 190/4/1
f 214/1/1 193/2/1 170/3/1 191/4/1
f 215/1/1 216/2/1 171/3/1 192/4/1
f 217/1/1 197/2/1 173/3/1 218/4/1
f 219/1/1 198/2/1 175/3/1 195/4/1
f 220/1/1 199/2/1 176/3/1 197/4/1
f 221/1/1 200/2/1 177/3/1 198/4/1
f 222/1/1 201/2/1 178/3/1 199/4/1
f 223/1/1 202/2/1 179/3/1 200/4/1
f 224/1/1 203/2/1 180/3/1 201/4/1
f 225/1/1 204/2/1 181/3/1 202/4/1
f 226/1/1 205/2/1 182/3/1 203/4/1
f 227/1/1 206/2/1 183/3/1 204/4/1
f 228/1/1 207/2/1 184/3/1 205/4/1
f 229/1/1 208/2/1 185/3/1 206/4/1
f 230/1/1 209/2/1 186/3/1 207/4/1
f 231/1/1 210/2/1 187/3/1 208/4/1
f 232/1/1 211/2/1 188/3/1 209/4/1
f 233/1/1 212/2/1 189/3/1 210/4/1
f 234/1/1 213/2/1 190/3/1 211/4/1
f 235/1/1 214/2/1 191/3/1 212/4/1
f 236/1/1 215/2/1 192/3/1 213/4/1
f 237/1/1 238/2/1 193/3/1 214/4/1
f 239/1/1 219/2/1 195/3/1 240/4/1
f 241/1/1 220/2/1 197/3/1 217/4/1
f 242/1/1 221/2/1 198/3/1 219/4/1
f 243/1/1 222/2/1 199/3/1 220/4/1
f 244/1/1 223/2/1 200/3/1 221/4/1
f 245/1/1 224/2/1 201/3/1 222/4/1
f 246/1/1 225/2/1 202/3/1 223/4/1
f 247/1/1 226/2/1 203/3/1 224/4/1
f 248/1/1 227/2/1 204/3/1 225/4/1
f 249/1/1 228/2/1 205/3/1 226/4/1
f 250/1/1 229/2/1 206/3/1 227/4/1
f 251/1/1 230/2/1 207/3/1 228/4/1
f 252/1/1 231/2/1 208/3/1 229/4/1
f 253/1/1 232/2/1 209/3/1 230/4/1
f 254/1/1 233/2/1 210/3/1 231/4/1
f 255/1/1 234/2/1 211/3/1 232/4/1
f 256/1/1 235/2/1 212/3/1 233/4/1
f 257/1/1 236/2/1 213/3/1 234/4/1
f 258/1/1 237/2/1 214/3/1 235/4/1
f 259/1/1 260/2/1 215/3/1 236/4/1
f 261/1/1 241/2/1 217/3/1 262/4/1
f 263/1/1 242/2/1 219/3/1 239/4/1
f 264/1/1 243/2/1 220/3/1 241/4/1
f 265/1/1 244/2/1 221/3/1 242/4/1
f 266/1/1 245/2/1 222/3/1 243/4/1
f 267/1/1 246/2/1 223/3/1 244/4/1
f 268/1/1 247/2/1 224/3/1 245/4/1
f 269/1/1 248/2/1 225/3/1 246/4/1
f 270/1/1 249/2/1 226/3/1 247/4/1
f 271/1/1 250/2/1 227/3/1 248/4/1
f 272/1/1 251/2/1 228/3/1 249/4/1
f 273/1/1 252/2/1 229/3/1 250/4/1
f 274/1/1 253/2/1 230/3/1 251/4/1
f 275/1/1 254/2/1 231/3/1 252/4/1
f 276/1/1 255/2/1 232/3/1 253/4/1
f 277/1/1 256/2/1 233/3/1 254/4/1
f 278/1/1 257/2/1 234/3/1 255/4/1
f 279/1/1 258/2/1 235/3/1 256/4/1
f 280/1/1 259/2/1 236/3/1 257/4/1
f 281/1/1 282/2/1 237/3/1 258/4/1
f 283/1/1 263/2/1 239/3/1 284/4/1
f 285/1/1 264/2/1 241/3/1 261/4/1
f 286/1/1 265/2/1 242/3/1 263/4/1
f 287/1/1 266/2/1 243/3/1 264/4/1
f 288/1/1 267/2/1 244/3/1 265/4/1
f 289/1/1 268/2/1 245/3/1 266/4/1
f 290/1/1 269/2/1 246/3/1 267/4/1
f 291/1/1 270/2/1 247/3/1 268/4/1
f 292/1/1 271/2/1 248/3/1 269/4/1
f 293/1/1 272/2/1 249/3/1 270/4/1
f 294/1/1 273/2/1 250/3/1 271/4/1
f 295/1/1 274/2/1 251/3/1 272/4/1
f 296/1/1 275/2/1 252/3/1 273/4/1
f 297/1/1 276/2/1 253/3/1 274/4/1
f 298/1/1 277/2/1 254/3/1 275/4/1
f 299/1/1 278/2/1 255/3/1 276/4/1
f 300/1/1 279/2/1 256/3/1 277/4/1
f 301/1/1 280/2/1 257/3/1 278/4/1
f 302/1/1 281/2/1 258/3/1 279/4/1
f 303/1/1 304/2/1 259/3/1 280/4/1
f 305/1/1 285/2/1 261/3/1 306/4/1
f 307/1/1 286/2/1 263/3/1 283/4/1
f 308/1/1 287/2/1 264/3/1 285/4/1
f 309/1/1 288/2/1 265/3/1 286/4/1
f 310/1/1 289/2/1 266/3/1 287/4/1
f 311/1/1 290/2/1 267/3/1 288/4/1
f 312/1/1 291/2/1 268/3/1 289/4/1
f 313/1/1 292/2/1 269/3/1 290/4/1
f 314/1/1 293/2/1 270/3/1 291/4/1
f 315/1/1 294/2/1 271/3/1 292/4/1
f 316/1/1 295/2/1 272/3/1 293/4/1
f 317/1/1 296/2/1 273/3/1 294/4/1
f 318/1/1 297/2/1 274/3/1 295/4/1
f 319/1/1 298/2/1 275/3/1 296/4/1
f 320/1/1 299/2/1 276/3/1 297/4/1
f 321/1/1 300/2/1 277/3/1 298/4/1
f 322/1/1 301/2/1 278/3/1 299/4/1
f 323/1/1 302/2/1 279/3/1 300/4/1
f 324/1/1 303/2/1 280/3/1 301/4/1
f 325/1/1 326/2/1 281/3/1 302/4/1
f 327/1/1 307/2/1 283/3/1 328/4/1
f 329/1/1 308/2/1 285/3/1 305/4/1
f 330/1/1 309/2/1 286/3/1 307/4/1
f 331/1/1 310/2/1 287/3/1 308/4/1
f 332/1/1 311/2/1 288/3/1 309/4/1
f 333/1/1 312/2/1 289/3/1 310/4/1
f 334/1/1 313/2/1 290/3/1 311/4/1
f 335/1/1 314/2/1 291/3/1 312/4/1
f 336/1/1 315/2/1 292/3/1 313/4/1
f 337/1/1 316/2/1 293/3/1 314/4/1
f 338/1/1 317/2/1 294/3/1 315/4/1
f 339/1/1 318/2/1 295/3/1 316/4/1
f 340/1/1 319/2/1 296/3/1 317/4/1
f 341/1/1 320/2/1 297/3/1 318/4/1
f 342/1/1 321/2/1 298/3/1 319/4/1
f 343/1/1 322/2/1 299/3/1 320/4/1
f 344/1/1 323/2/1 300/3/1 321/4/1
f 345/1/1 324/2/1 301/3/1 322/4/1
f 346/1/1 325/2/1 302/3/1 323/4/1
f 347/1/1 348/2/1 303/3/1 324/4/1
f 349/1/1 329/2/1 305/3/1 350/4/1
f 351/1/1 330/2/1 307/3/1 327/4/1
f 352/1/1 331/2/1 308/3/1 329/4/1
f 353/1/1 332/2/1 309/3/1 330/4/1
f 354/1/1 333/2/1 310/3/1 331/4/1
f 355/1/1 334/2/1 311/3/1 332/4/1
f 356/1/1 335/2/1 312/3/1 333/4/1
f 357/1/1 336/2/1 313/3/1 334/4/1
f 358/1/1 337/2/1 314/3/1 335/4/1
f 359/1/1 338/2/1 315/3/1 336/4/1
f 360/1/1 339/2/1 316/3/1 337/4/1
f 361/1/1 340/2/1 317/3/1 338/4/1
f 362/1/1 341/2/1 318/3/1 339/4/1
f 363/1/1 342/2/1 319/3/1 340/4/1
f 364/1/1 343/2/1 320/3/1 341/4/1
f 365/1/1 344/2/1 321/3/1 342/4/1
f 366/1/1 345/2/1 322/3/1 343/4/1
f 367/1/1 346/2/1 323/3/1 344/4/1
f 368/1/1 347/2/1 324/3/1 345/4/1
f 369/1/1 370/2/1 325/3/1 346/4/1
f 371/1/1 351/2/1 327/3/1 372/4/1
f 373/1/1 352/2/1 329/3/1 349/4/1
f 374/1/1 353/2/1 330/3/1 351/4/1
f 375/1/1 354/2/1 331/3/1 352/4/1
f 376/1/1 355/2/1 332/3/1 353/4/1
f 377/1/1 356/2/1 333/3/1 354/4/1
f 378/1/1 357/2/1 334/3/1 355/4/1
f 379/1/1 358/2/1 335/3/1 356/4/1
f 380/1/1 359/2/1 336/3/1 357/4/1
f 381/1/1 360/2/1 337/3/1 358/4/1
f 382/1/1 361/2/1 338/3/1 359/4/1
f 383/1/1 362/2/1 339/3/1 360/4/1
f 384/1/1 363/2/1 340/3/1 361/4/1
f 385/1/1 364/2/1 341/3/1 362/4/1
f 386/1/1 365/2/1 342/3/1 363/4/1
f 387/1/1 366/2/1 343/3/1 364/4/1
f 388/1/1 367/2/1 344/3/1 365/4/1
f 389/1/1 368/2/1 345/3/1 366/4/1
f 390/1/1 369/2/1 346/3/1 367/4/1
f 391/1/1 392/2/1 347/3/1 368/4/1
f 393/1/1 373/2/1 349/3/1 394/4/1
f 395/1/1 374/2/1 351/3/1 371/4/1
f 396/1/1 375/2/1 352/3/1 373/4/1
f 397/1/1 376/2/1 353/3/1 374/4/1
f 398/1/1 377/2/1 354/3/1 375/4/1
f 399/1/1 378/2/1 355/3/1 376/4/1
f 400/1/1 379/2/1 356/3/1 377/4/1
f 401/1/1 380/2/1 357/3/1 378/4/1
f 402/1/1 381/2/1 358/3/1 379/4/1
f 403/1/1 382/2/1 359/3/1 380/4/1
f 404/1/1 383/2/1 360/3/1 381/4/1
f 405/1/1 384/2/1 361/3/1 382/4/1
f 406/1/1 385/2/1 362/3/1 383/4/1
f 407/1/1 386/2/1 363/3/1 384/4/1
f 408/1/1 387/2/1 364/3/1 385/4/1
f 409/1/1 388/2/1 365/3/1 386/4/1
f 410/1/1 389/2/1 366/3/1 387/4/1
f 411/1/1 390/2/1 367/3/1 388/4/1
f 412/1/1 391/2/1 368/3/1 389/4/1
f 413/1/1 414/2/1 369/3/1 390/4/1
f 415/1/1 395/2/1 371/3/1 416/4/1
f 417/1/1 396/2/1 373/3/1 393/4/1
f 418/1/1 397/2/1 374/3/1 395/4/1
f 419/1/1 398/2/1 375/3/1 396/4/1
f 420/1/1 399/2/1 376/3/1 397/4/1
f 421/1/1 400/2/1 377/3/1 398/4/1
f 422/1/1 401/2/1 378/3/1 399/4/1
f 423/1/1 402/2/1 379/3/1 400/4/1
f 424/1/1 403/2/1 380/3/1 401/4/1
f 425/1/1 404/2/1 381/3/1 402/4/1
f 426/1/1 405/2/1 382/3/1 403/4/1
f 427/1/1 406/2/1 383/3/1 404/4/1
f 428/1/1 407/2/1 384/3/1 405/4/1
f 429/1/1 408/2/1 385/3/1 406/4/1
f 430/1/1 409/2/1 386/3/1 407/4/1
f 431/1/1 410/2/1 387/3/1 408/4/1
f 432/1/1 411/2/1 388/3/1 409/4/1
f 433/1/1 412/2/1 389/3/1 410/4/1
f 434/1/1 413/2/1 390/3/1 411/4/1
f 435/1/1 436/2/1 391/3/1 412/4/1
f 437/1/1 417/2/1 393/3/1 438/4/1
f 439/1/1 418/2/1 395/3/1 415/4/1
f 440/1/1 419/2/1 396/3/1 417/4/1
f 441/1/1 420/2/1 397/3/1 418/4/1
f 442/1/1 421/2/1 398/3/1 419/4/1
f 443/1/1 422/2/1 399/3/1 420/4/1
f 444/1/1 423/2/1 400/3/1 421/4/1
f 445/1/1 424/2/1 401/3/1 422/4/1
f 446/1/1 425/2/1 402/3/1 423/4/1
f 447/1/1 426/2/1 403/3/1 424/4/1
f 448/1/1 427/2/1 404/3/1 425/4/1
f 449/1/1 428/2/1 405/3/1 426/4/1
f 450/1/1 429/2/1 406/3/1 427/4/1
f 451/1/1 430/2/1 407/3/1 428/4/1
f 452/1/1 431/2/1 408/3/1 429/4/1
f 453/1/1 432/2/1 409/3/1 430/4/1
f 454/1/1 433/2/1 410/3/1 431/4/1
f 455/1/1 434/2/1 411/3/1 432/4/1
f 456/1/1 435/2/1 412/3/1 433/4/1
f 457/1/1 458/2/1 413/3/1 434/4/1
f 459/1/1 439/2/1 415/3/1 460/4/1
f 461/1/1 440/2/1 417/3/1 437/4/1
f 462/1/1 441/2/1 418/3/1 439/4/1
f 463/1/1 442/2/1 419/3/1 440/4/1
f 464/1/1 443/2/1 420/3/1 441/4/1
f 465/1/1 444/2/1 421/3/1 442/4/1
f 466/1/1 445/2/1 422/3/1 443/4/1
f 467/1/1 446/2/1 423/3/1 444/4/1
f 468/1/1 447/2/1 424/3/1 445/4/1
f 469/1/1 448/2/1 425/3/1 446/4/1
f 470/1/1 449/2/1 426/3/1 447/4/1
f 471/1/1 450/2/1 427/3/1 448/4/1
f 472/1/1 451/2/1 428/3/1 449/4/1
f 473/1/1 452/2/1 429/3/1 450/4/1
f 474/1/1 453/2/1 430/3/1 451/4/1
f 475/1/1 454/2/1 431/3/1 452/4/1
f 476/1/1 455/2/1 432/3/1 453/4/1
f 477/1/1 456/2/1 433/3/1 454/4/1
f 478/1/1 457/2/1 434/3/1 455/4/1
f 479/1/1 480/2/1 435/3/1 456/4/1

